HIERARCHY
ROOT hip
{
  OFFSET 0 0 0
  CHANNELS 6 Xposition Yposition Zposition Zrotation Yrotation Xrotation
  JOINT abdomen
  {
    OFFSET 0 20.6881 -0.73152
    CHANNELS 3 Zrotation Xrotation Yrotation
    JOINT chest
    {
      OFFSET 0 11.7043 -0.48768
      CHANNELS 3 Zrotation Xrotation Yrotation
      JOINT neck
      {
        OFFSET 0 22.1894 -2.19456
        CHANNELS 3 Zrotation Xrotation Yrotation
        JOINT head
        {
          OFFSET -0.24384 7.07133 1.2192
          CHANNELS 3 Zrotation Xrotation Yrotation
          JOINT leftEye
          {
            OFFSET 4.14528 8.04674 8.04672
            CHANNELS 3 Zrotation Xrotation Yrotation
            End Site
            {
              OFFSET 1 0 0
            }
          }
          JOINT rightEye
          {
            OFFSET -3.6576 8.04674 8.04672
            CHANNELS 3 Zrotation Xrotation Yrotation
            End Site
            {
              OFFSET 1 0 0
            }
          }
        }
      }
      JOINT rCollar
      {
        OFFSET -2.68224 19.2634 -4.8768
        CHANNELS 3 Zrotation Xrotation Yrotation
        JOINT rShldr
        {
          OFFSET -8.77824 -1.95073 1.46304
          CHANNELS 3 Zrotation Xrotation Yrotation
          JOINT rForeArm
          {
            OFFSET -28.1742 -1.7115 0.48768
            CHANNELS 3 Zrotation Xrotation Yrotation
            JOINT rHand
            {
              OFFSET -22.5879 0.773209 7.07136
              CHANNELS 3 Zrotation Xrotation Yrotation
              JOINT rThumb1
              {
                OFFSET -1.2192 -0.487915 3.41376
                CHANNELS 3 Zrotation Xrotation Yrotation
                JOINT rThumb2
                {
                  OFFSET -3.37035 -0.52449 3.41376
                  CHANNELS 3 Zrotation Xrotation Yrotation
                  End Site
                  {
                    OFFSET -1.78271 -1.18214 1.43049
                  }
                }
              }
              JOINT rIndex1
              {
                OFFSET -7.75947 0.938293 5.60832
                CHANNELS 3 Zrotation Xrotation Yrotation
                JOINT rIndex2
                {
                  OFFSET -2.54057 -0.884171 1.56538
                  CHANNELS 3 Zrotation Xrotation Yrotation
                  End Site
                  {
                    OFFSET -1.62519 -0.234802 1.16502
                  }
                }
              }
              JOINT rMid1
              {
                OFFSET -8.24714 1.18213 3.41376
                CHANNELS 3 Zrotation Xrotation Yrotation
                JOINT rMid2
                {
                  OFFSET -3.10165 -0.590103 1.0647
                  CHANNELS 3 Zrotation Xrotation Yrotation
                  End Site
                  {
                    OFFSET -2.48547 -0.328903 0.83742
                  }
                }
              }
              JOINT rRing1
              {
                OFFSET -8.82822 0.546677 1.51678
                CHANNELS 3 Zrotation Xrotation Yrotation
                JOINT rRing2
                {
                  OFFSET -2.60934 -0.819778 -0.0198488
                  CHANNELS 3 Zrotation Xrotation Yrotation
                  End Site
                  {
                    OFFSET -2.33842 -0.294052 0.168128
                  }
                }
              }
              JOINT rPinky1
              {
                OFFSET -8.27202 -0.0477905 -0.4584
                CHANNELS 3 Zrotation Xrotation Yrotation
                JOINT rPinky2
                {
                  OFFSET -1.82734 -0.647385 -0.700984
                  CHANNELS 3 Zrotation Xrotation Yrotation
                  End Site
                  {
                    OFFSET -1.69225 -0.51767 -0.607171
                  }
                }
              }
            }
          }
        }
      }
      JOINT lCollar
      {
        OFFSET 2.68224 19.2634 -4.8768
        CHANNELS 3 Zrotation Xrotation Yrotation
        JOINT lShldr
        {
          OFFSET 8.77824 -1.95073 1.46304
          CHANNELS 3 Zrotation Xrotation Yrotation
          JOINT lForeArm
          {
            OFFSET 28.1742 -1.7115 0.48768
            CHANNELS 3 Zrotation Xrotation Yrotation
            JOINT lHand
            {
              OFFSET 22.5879 0.773209 7.07136
              CHANNELS 3 Zrotation Xrotation Yrotation
              JOINT lThumb1
              {
                OFFSET 1.2192 -0.487915 3.41376
                CHANNELS 3 Zrotation Xrotation Yrotation
                JOINT lThumb2
                {
                  OFFSET 3.37035 -0.52449 3.41376
                  CHANNELS 3 Zrotation Xrotation Yrotation
                  End Site
                  {
                    OFFSET 1.78271 -1.18214 1.43049
                  }
                }
              }
              JOINT lIndex1
              {
                OFFSET 7.75947 0.938293 5.60832
                CHANNELS 3 Zrotation Xrotation Yrotation
                JOINT lIndex2
                {
                  OFFSET 2.54057 -0.884171 1.56538
                  CHANNELS 3 Zrotation Xrotation Yrotation
                  End Site
                  {
                    OFFSET 1.62519 -0.234802 1.16502
                  }
                }
              }
              JOINT lMid1
              {
                OFFSET 8.24714 1.18213 3.41376
                CHANNELS 3 Zrotation Xrotation Yrotation
                JOINT lMid2
                {
                  OFFSET 3.10165 -0.590103 1.0647
                  CHANNELS 3 Zrotation Xrotation Yrotation
                  End Site
                  {
                    OFFSET 2.48547 -0.328903 0.83742
                  }
                }
              }
              JOINT lRing1
              {
                OFFSET 8.82822 0.546677 1.51678
                CHANNELS 3 Zrotation Xrotation Yrotation
                JOINT lRing2
                {
                  OFFSET 2.60934 -0.819778 -0.0198488
                  CHANNELS 3 Zrotation Xrotation Yrotation
                  End Site
                  {
                    OFFSET 2.33842 -0.294052 0.168128
                  }
                }
              }
              JOINT lPinky1
              {
                OFFSET 8.27202 -0.0477905 -0.4584
                CHANNELS 3 Zrotation Xrotation Yrotation
                JOINT lPinky2
                {
                  OFFSET 1.82734 -0.647385 -0.700984
                  CHANNELS 3 Zrotation Xrotation Yrotation
                  End Site
                  {
                    OFFSET 1.69225 -0.51767 -0.607171
                  }
                }
              }
            }
          }
        }
      }
    }
  }
  JOINT rButtock
  {
    OFFSET -8.77824 4.35084 1.2192
    CHANNELS 3 Zrotation Xrotation Yrotation
    JOINT rThigh
    {
      OFFSET 0 -1.70687 -2.19456
      CHANNELS 3 Zrotation Xrotation Yrotation
      JOINT rShin
      {
        OFFSET 0 -36.8199 0.73152
        CHANNELS 3 Zrotation Xrotation Yrotation
        JOINT rFoot
        {
          OFFSET 0.73152 -45.1104 -5.12064
          CHANNELS 3 Zrotation Xrotation Yrotation
          End Site
          {
            OFFSET -1.1221 -3.69964 12.103
          }
        }
      }
    }
  }
  JOINT lButtock
  {
    OFFSET 8.77824 4.35084 1.2192
    CHANNELS 3 Zrotation Xrotation Yrotation
    JOINT lThigh
    {
      OFFSET 0 -1.70687 -2.19456
      CHANNELS 3 Zrotation Xrotation Yrotation
      JOINT lShin
      {
        OFFSET 0 -36.8199 0.73152
        CHANNELS 3 Zrotation Xrotation Yrotation
        JOINT lFoot
        {
          OFFSET -0.73152 -45.1104 -5.12064
          CHANNELS 3 Zrotation Xrotation Yrotation
          End Site
          {
            OFFSET 1.1221 -3.69964 12.103
          }
        }
      }
    }
  }
}
MOTION
Frames:	7
Frame Time:	0.00833333
-221.602 83.185 -49.8345 0.0 0.0 0.0 -3.13117 0.00208553 -0.0845021 -0.86322 0.0181965 -0.14933 1.13699e-14 0.0 8.94531e-16 3.36474e-14 3.18055e-15 2.67893e-15 -0.0 0.0 0.0 -0.0 0.0 0.0 5.41493e-15 -1.40547e-16 7.95139e-16 1.20127e-13 -3.13707e-15 1.15295e-14 2.03615e-12 -7.2616e-13 1.90833e-13 2.35897e-11 1.04163e-13 2.02283e-12 5.55934e-11 -1.34448e-12 4.8249e-12 9.60106e-11 -2.32499e-12 8.31317e-12 5.55993e-11 -1.34339e-12 4.81218e-12 7.73091 5.47488 0.417314 5.55943e-11 -1.34418e-12 4.81854e-12 2.90554 0.965183 0.102902 5.56038e-11 -1.34378e-12 4.81615e-12 10.2786 0.731801 0.0259123 5.55927e-11 -1.34498e-12 4.82172e-12 2.22167 -0.733487 -0.20892 5.22043e-15 -1.45982e-16 3.97569e-16 1.18486e-13 -3.11222e-15 1.0138e-14 2.07462e-12 5.18232e-13 1.68569e-13 2.35521e-11 -1.14045e-12 2.07372e-12 5.55982e-11 -1.34702e-12 4.81218e-12 9.60158e-11 -2.32817e-12 8.33385e-12 5.55937e-11 -1.34537e-12 4.82172e-12 -7.73091 5.47488 -0.417314 5.55962e-11 -1.34617e-12 4.82172e-12 -2.90554 0.965183 -0.102902 5.55926e-11 -1.34657e-12 4.82252e-12 -10.2786 0.731801 -0.0259123 5.56015e-11 -1.34696e-12 4.81536e-12 -2.22167 -0.733487 0.20892 -2.03217e-16 0.0 -3.88251e-19 -1.91922 -1.93503 0.0146317 -0.00849751 -2.07867 -0.0697335 -0.458208 4.00011 0.132391 2.03217e-16 0.0 3.88251e-19 -2.83866 -9.32621 0.32239 -0.00902218 11.3078 -0.235054 0.527808 -1.99506 -0.0184057
-217.607 80.473 -55.0788 5.3365 75.3559 11.2587 -3.60074 8.52788 1.85668 -1.54362 0.173296 0.449991 -0.335972 1.23816 3.98284 -4.48403 -13.7723 6.80818 -0.0 0.0 0.0 -0.0 0.0 0.0 6.2773e-14 -4.28705e-13 -9.37794e-14 20.4486 2.24338 3.11849 -9.00091 -5.87115 11.5963 0.0623694 -5.56173 -0.768564 9.13109e-10 3.02912e-09 -1.67026e-09 1.60925e-09 5.22643e-09 -2.87696e-09 9.13115e-10 3.02912e-09 -1.67028e-09 7.73091 5.47488 0.417314 9.1311e-10 3.02912e-09 -1.67027e-09 2.90554 0.965183 0.102902 9.13119e-10 3.02912e-09 -1.67027e-09 10.2786 0.731801 0.0259123 9.13108e-10 3.02912e-09 -1.67026e-09 2.22167 -0.733487 -0.20892 6.26076e-14 -4.28709e-13 -9.41226e-14 -17.2011 -1.91658 -0.318455 14.2211 -11.3637 -14.3099 -0.200666 -10.1107 1.34723 4.31308e-10 2.74429e-09 1.77347e-09 6.94408e-10 4.7572e-09 3.06658e-09 4.31306e-10 2.74429e-09 1.77348e-09 -7.73091 5.47488 -0.417314 4.31308e-10 2.74429e-09 1.77347e-09 -2.90554 0.965183 -0.102902 4.31302e-10 2.74429e-09 1.77347e-09 -10.2786 0.731801 -0.0259123 4.31311e-10 2.74429e-09 1.77347e-09 -2.22167 -0.733487 0.20892 -2.03217e-16 0.0 -3.88251e-19 -4.45462 -8.36333 -2.57822 -0.0178883 13.8349 0.128424 -0.608848 1.82864 -2.38432 2.03217e-16 0.0 3.88251e-19 -1.63834 -17.9081 5.11208 0.0741674 25.186 -0.413442 0.434491 4.08916 -2.65537
-215.892 81.0328 -55.3264 4.9553 74.9143 10.9601 -4.74836 17.5313 4.03559 -2.27876 0.358747 1.08003 -0.88455 2.50685 8.19376 -5.2885 -27.6698 15.3899 -0.0 0.0 0.0 -0.0 0.0 0.0 1.30242e-13 -9.27554e-13 -2.03844e-13 41.8022 4.56534 6.50705 -15.9529 -11.2577 24.2119 -0.0368598 -11.3867 -1.59843 1.84117e-09 6.36958e-09 -3.50301e-09 3.24739e-09 1.09907e-08 -6.03412e-09 1.84118e-09 6.36958e-09 -3.50301e-09 7.73091 5.47488 0.417314 1.84118e-09 6.36958e-09 -3.50301e-09 2.90554 0.965183 0.102902 1.84118e-09 6.36958e-09 -3.50301e-09 10.2786 0.731801 0.0259123 1.84117e-09 6.36958e-09 -3.503e-09 2.22167 -0.733487 -0.20892 1.30106e-13 -9.27556e-13 -2.0413e-13 -35.3657 -3.90784 -0.786273 22.9904 -20.9586 -31.1093 0.138709 -20.5676 2.89224 8.03309e-10 5.68001e-09 3.68956e-09 1.28297e-09 9.84566e-09 6.37821e-09 8.03309e-10 5.68002e-09 3.68957e-09 -7.73091 5.47488 -0.417314 8.03313e-10 5.68002e-09 3.68956e-09 -2.90554 0.965183 -0.102902 8.03302e-10 5.68002e-09 3.68956e-09 -10.2786 0.731801 -0.0259123 8.03313e-10 5.68002e-09 3.68955e-09 -2.22167 -0.733487 0.20892 -2.03217e-16 0.0 -3.88251e-19 -7.78359 -15.1511 -5.43736 -0.163544 30.7241 0.385341 -0.980458 -0.530199 -5.03531 2.03217e-16 0.0 3.88251e-19 1.29302 -26.72 10.7985 0.286608 39.8417 -0.685604 0.985207 10.5912 -5.75421
-214.172 81.5805 -55.575 4.6663 74.4699 10.6798 -6.4264 25.4582 6.29035 -2.91416 0.483311 1.64869 -1.52106 3.64273 11.9703 -1.57174 -38.6475 25.7503 -0.0 0.0 0.0 -0.0 0.0 0.0 1.77489e-13 -1.28583e-12 -2.82928e-13 60.6126 6.6502 9.4122 -20.169 -14.7172 35.9559 -0.277101 -16.6729 -2.39561 2.62814e-09 9.09006e-09 -5.02044e-09 4.63572e-09 1.56839e-08 -8.64752e-09 2.62814e-09 9.09006e-09 -5.02045e-09 7.73091 5.47488 0.417314 2.62814e-09 9.09006e-09 -5.02045e-09 2.90554 0.965183 0.102902 2.62815e-09 9.09006e-09 -5.02044e-09 10.2786 0.731801 0.0259123 2.62814e-09 9.09006e-09 -5.02044e-09 2.22167 -0.733487 -0.20892 1.77382e-13 -1.28584e-12 -2.83163e-13 -51.6674 -5.74903 -0.959658 26.0351 -25.3026 -47.8297 1.01405 -30.2596 4.6078 1.18273e-09 8.23555e-09 5.31078e-09 1.89119e-09 1.42763e-08 9.18306e-09 1.18273e-09 8.23556e-09 5.31079e-09 -7.73091 5.47488 -0.417314 1.18273e-09 8.23556e-09 5.31078e-09 -2.90554 0.965183 -0.102902 1.18272e-09 8.23557e-09 5.31078e-09 -10.2786 0.731801 -0.0259123 1.18273e-09 8.23556e-09 5.31077e-09 -2.22167 -0.733487 0.20892 -2.03217e-16 0.0 -3.88251e-19 -11.3735 -21.0452 -8.23429 -0.475057 45.6599 0.734675 -1.481 -2.48859 -7.4205 2.03217e-16 0.0 3.88251e-19 5.81987 -34.0848 16.9289 0.680753 52.9388 -1.09754 1.97794 16.1117 -8.23459
-212.518 81.9033 -55.8772 4.6904 74.1692 10.8784 -8.06857 30.804 8.21731 -3.29119 0.455891 2.06378 -2.03145 4.51172 14.6418 4.20594 -44.827 35.3433 -0.0 0.0 0.0 -0.0 0.0 0.0 1.74181e-13 -1.2927e-12 -2.8456e-13 73.5976 8.22507 11.0548 -22.2297 -16.1061 44.4149 -0.551728 -20.623 -3.03181 3.06236e-09 1.02606e-08 -5.74963e-09 5.39955e-09 1.76995e-08 -9.90152e-09 3.06236e-09 1.02606e-08 -5.74963e-09 7.73091 5.47488 0.417314 3.06236e-09 1.02606e-08 -5.74963e-09 2.90554 0.965183 0.102902 3.06237e-09 1.02606e-08 -5.74963e-09 10.2786 0.731801 0.0259123 3.06236e-09 1.02606e-08 -5.74962e-09 2.22167 -0.733487 -0.20892 1.74102e-13 -1.2927e-12 -2.84759e-13 -63.2226 -7.21632 -0.388838 26.6324 -25.1794 -59.5698 2.186 -38.0957 6.32576 1.58069e-09 9.84065e-09 6.19481e-09 2.54859e-09 1.70623e-08 1.0721e-08 1.58069e-09 9.84067e-09 6.19483e-09 -7.73091 5.47488 -0.417314 1.58069e-09 9.84067e-09 6.19481e-09 -2.90554 0.965183 -0.102902 1.58068e-09 9.84067e-09 6.19481e-09 -10.2786 0.731801 -0.0259123 1.58069e-09 9.84067e-09 6.1948e-09 -2.22167 -0.733487 0.20892 -2.03217e-16 0.0 -3.88251e-19 -14.2696 -24.8667 -10.434 -0.872357 55.7145 1.12701 -1.87493 -3.47957 -9.12474 2.03217e-16 0.0 3.88251e-19 10.5601 -38.6929 22.2042 1.20887 62.142 -1.61218 2.55223 19.3782 -8.77797
-210.858 82.1619 -56.1507 4.4436 73.8623 10.8157 -8.85554 32.6248 9.26229 -3.3035 0.214469 2.26748 -2.23155 5.07358 15.7858 7.19359 -46.6568 39.788 -0.0 0.0 0.0 -0.0 0.0 0.0 8.10429e-14 -6.86957e-13 -1.49662e-13 78.6508 9.14168 10.8699 -22.9334 -16.4498 47.9083 -0.725987 -22.8117 -3.39967 3.03994e-09 9.16355e-09 -5.38902e-09 5.35364e-09 1.5795e-08 -9.27477e-09 3.03994e-09 9.16355e-09 -5.38902e-09 7.73091 5.47488 0.417314 3.03994e-09 9.16355e-09 -5.38902e-09 2.90554 0.965183 0.102902 3.03995e-09 9.16355e-09 -5.38901e-09 10.2786 0.731801 0.0259123 3.03994e-09 9.16355e-09 -5.38901e-09 2.22167 -0.733487 -0.20892 8.10007e-14 -6.86956e-13 -1.49841e-13 -68.0672 -8.12274 1.23007 26.7927 -24.3854 -63.9303 3.20707 -43.4231 7.71666 2.2159e-09 1.04676e-08 6.08641e-09 3.63369e-09 1.81599e-08 1.05631e-08 2.21591e-09 1.04676e-08 6.08642e-09 -7.73091 5.47488 -0.417314 2.21591e-09 1.04676e-08 6.08641e-09 -2.90554 0.965183 -0.102902 2.21589e-09 1.04676e-08 6.08641e-09 -10.2786 0.731801 -0.0259123 2.21591e-09 1.04676e-08 6.0864e-09 -2.22167 -0.733487 0.20892 -2.03217e-16 0.0 -3.88251e-19 -15.4899 -25.9311 -11.5129 -1.05682 58.9001 1.29931 -1.93629 -3.11674 -9.91536 2.03217e-16 0.0 3.88251e-19 13.5835 -40.1287 25.029 1.56105 66.0362 -1.93324 1.88784 19.5596 -6.05205
-209.154 82.5162 -56.3723 4.1392 73.4504 10.578 -8.80922 31.9613 9.53205 -3.05488 -0.179717 2.32009 -2.1677 5.43044 15.833 6.70585 -46.2056 39.4069 -0.0 0.0 0.0 -0.0 0.0 0.0 -7.53513e-14 3.50614e-13 8.14209e-14 78.1042 9.59824 9.36772 -22.9582 -16.5756 47.829 -0.784299 -23.7401 -3.55407 2.68958e-09 6.45146e-09 -4.24932e-09 4.72627e-09 1.10986e-08 -7.30356e-09 2.68958e-09 6.45147e-09 -4.24932e-09 7.73091 5.47488 0.417314 2.68958e-09 6.45147e-09 -4.24932e-09 2.90554 0.965183 0.102902 2.68958e-09 6.45146e-09 -4.24932e-09 10.2786 0.731801 0.0259123 2.68957e-09 6.45146e-09 -4.24931e-09 2.22167 -0.733487 -0.20892 -7.5351e-14 3.50614e-13 8.12501e-14 -68.1008 -8.61854 3.60084 26.7738 -24.4952 -63.4594 3.93074 -46.9741 8.74046 3.01052e-09 1.03791e-08 5.26724e-09 5.0072e-09 1.80224e-08 9.19024e-09 3.01053e-09 1.03791e-08 5.26724e-09 -7.73091 5.47488 -0.417314 3.01053e-09 1.03791e-08 5.26724e-09 -2.90554 0.965183 -0.102902 3.01051e-09 1.03791e-08 5.26723e-09 -10.2786 0.731801 -0.0259123 3.01053e-09 1.03791e-08 5.26722e-09 -2.22167 -0.733487 0.20892 -2.03217e-16 0.0 -3.88251e-19 -15.342 -25.0639 -11.6994 -0.958223 57.1825 1.19301 -1.72494 -1.79519 -10.0517 2.03217e-16 0.0 3.88251e-19 14.793 -39.5322 25.6862 1.57795 66.1336 -1.91325 0.625118 17.4082 -1.08794
